<svg width="512" height="512" version="1.1" xmlns="http://www.w3.org/2000/svg" desc="Created with imagetracer.js version 1.2.6" ><path fill="rgb(219,218,218)" stroke="rgb(219,218,218)" stroke-width="1" opacity="1" d="M 250.5 56 L 281.5 57 L 307.5 62 L 326.5 70 L 345 84.5 Q 356.4 97.1 362 115.5 L 367 140.5 L 368 176.5 L 357.5 197 L 344.5 197 L 344 196.5 L 344 138.5 Q 340.2 115.8 325.5 104 Q 312.5 91.5 286.5 92 L 271.5 96 L 255.5 106 Q 243 91.5 215.5 92 L 204.5 94 L 194.5 98 L 178 112.5 L 172 122.5 L 168 138.5 L 168 197 L 154.5 197 L 154 195.5 L 144 176.5 L 144 160.5 L 145 159.5 L 145 146.5 L 146 145.5 L 145 142.5 L 146 141.5 L 148 124.5 L 154 105.5 Q 161 87.5 175.5 77 Q 189.2 66.2 208.5 61 Q 214.8 61.8 217.5 59 L 232.5 58 L 233.5 57 L 249.5 57 L 250.5 56 Z " /><path fill="rgb(219,218,218)" stroke="rgb(219,218,218)" stroke-width="1" opacity="1" d="M 190.5 184 L 225.5 184 L 230 186 L 231 188.5 L 185.5 189 L 186 187.5 Q 185.3 185.3 187.5 186 L 190.5 184 Z " /><path fill="rgb(219,218,218)" stroke="rgb(219,218,218)" stroke-width="1" opacity="1" d="M 286.5 184 L 321.5 184 L 326 186 L 327 188.5 L 281.5 189 L 282 187.5 Q 281.3 185.3 283.5 186 L 286.5 184 Z " /><path fill="rgb(219,218,218)" stroke="rgb(219,218,218)" stroke-width="1" opacity="1" d="M 156 203 L 167.5 203 L 168 203.5 L 168 239.5 L 160 232.5 L 159 216.5 L 156 203 Z " /><path fill="rgb(219,218,218)" stroke="rgb(219,218,218)" stroke-width="1" opacity="1" d="M 344 203 L 355.5 203 L 356 205.5 L 353 217.5 L 352 232.5 L 344.5 240 L 344 203 Z " /><path fill="rgb(219,218,218)" stroke="rgb(219,218,218)" stroke-width="1" opacity="1" d="M 221.5 272 L 292.5 272 L 302 279.5 Q 304.8 282.5 304 288 L 284.5 288 L 280.5 291 L 264.5 296 L 248.5 296 L 236.5 293 L 227.5 288 L 208 288 Q 208.6 279.2 214.5 275 L 221.5 272 Z " /><path fill="rgb(219,218,218)" stroke="rgb(219,218,218)" stroke-width="1" opacity="1" d="M 184.5 304 L 208.5 328 Q 217.2 334.3 230 336.5 L 184.5 352 L 184.5 304 Z " /><path fill="rgb(219,218,218)" stroke="rgb(219,218,218)" stroke-width="1" opacity="1" d="M 327.5 305 L 328 351.5 L 326.5 351 L 282 336.5 L 292.5 334 L 302.5 329 L 327.5 305 Z " /><path fill="rgb(0,0,0)" stroke="rgb(0,0,0)" stroke-width="1" opacity="0" d="M 0 0 L 512 0 L 512 512 L 0 512 L 0 0 Z M 237 32 L 236 33 L 227 33 L 214 36 L 209 36 L 189 42 Q 170 49 157 61 Q 141 75 132 95 L 124 120 L 122 138 L 121 139 L 121 149 L 120 150 L 120 184 L 130 201 L 135 220 Q 133 226 136 228 L 136 272 L 139 285 L 115 301 Q 98 315 86 334 L 78 350 L 72 374 L 72 408 Q 75 421 82 430 Q 92 442 107 450 L 136 463 L 152 468 L 179 474 L 197 476 L 198 477 L 206 477 L 207 478 L 232 479 L 233 480 L 280 480 L 281 479 L 295 479 L 296 478 L 306 478 L 307 477 L 322 476 L 349 471 Q 371 466 390 458 Q 406 451 419 441 Q 435 430 440 408 L 440 374 L 437 359 Q 430 335 416 320 Q 398 298 373 285 L 376 272 L 376 228 Q 379 226 377 220 L 382 201 L 392 184 L 392 151 L 391 150 L 391 139 L 390 138 L 388 120 Q 381 89 364 70 Q 345 47 312 38 L 286 33 L 277 33 L 276 32 L 237 32 Z " /><path fill="rgb(152,136,128)" stroke="rgb(152,136,128)" stroke-width="1" opacity="1" d="M 241.5 56 L 245 56.5 L 241.5 57 L 241.5 56 Z " /><path fill="rgb(152,136,128)" stroke="rgb(152,136,128)" stroke-width="1" opacity="1" d="M 272.5 56 L 275 56.5 L 272.5 57 L 272.5 56 Z " /><path fill="rgb(152,136,128)" stroke="rgb(152,136,128)" stroke-width="1" opacity="1" d="M 221.5 58 L 224 58.5 L 221.5 59 L 221.5 58 Z " /><path fill="rgb(152,136,128)" stroke="rgb(152,136,128)" stroke-width="1" opacity="1" d="M 171.5 80 L 166.5 86 L 171.5 80 Z " /><path fill="rgb(152,136,128)" stroke="rgb(152,136,128)" stroke-width="1" opacity="1" d="M 144.5 154 L 145 159.5 L 144 159.5 L 144.5 154 Z " /><path fill="rgb(152,136,128)" stroke="rgb(152,136,128)" stroke-width="1" opacity="1" d="M 185.5 189 L 230 189.5 L 185.5 190 L 185.5 189 Z " /><path fill="rgb(152,136,128)" stroke="rgb(152,136,128)" stroke-width="1" opacity="1" d="M 282.5 189 L 327 189.5 L 282.5 190 L 282.5 189 Z " /><path fill="rgb(152,136,128)" stroke="rgb(152,136,128)" stroke-width="1" opacity="1" d="M 177.5 191 L 175.5 194 L 177.5 191 Z " /><path fill="rgb(152,136,128)" stroke="rgb(152,136,128)" stroke-width="1" opacity="1" d="M 334.5 191 L 336.5 194 L 334.5 191 Z " /><path fill="rgb(152,136,128)" stroke="rgb(152,136,128)" stroke-width="1" opacity="1" d="M 358.5 196 L 357.5 198 L 344 197.5 L 357.5 197 L 358.5 196 Z " /><path fill="rgb(152,136,128)" stroke="rgb(152,136,128)" stroke-width="1" opacity="1" d="M 154.5 197 L 168 197.5 L 154.5 198 L 154.5 197 Z " /><path fill="rgb(152,136,128)" stroke="rgb(152,136,128)" stroke-width="1" opacity="1" d="M 208.5 200 L 213 200.5 L 208 204.5 Q 209.5 211.5 205.5 213 L 199 212.5 L 208.5 200 Z " /><path fill="rgb(152,136,128)" stroke="rgb(152,136,128)" stroke-width="1" opacity="1" d="M 224.5 200 L 232 200.5 L 224.5 210 Q 225.3 204.2 222 202.5 L 224.5 200 Z " /><path fill="rgb(152,136,128)" stroke="rgb(152,136,128)" stroke-width="1" opacity="1" d="M 304.5 200 L 312 200.5 L 304.5 210 Q 305.3 204.2 302 202.5 L 304.5 200 Z " /><path fill="rgb(152,136,128)" stroke="rgb(152,136,128)" stroke-width="1" opacity="1" d="M 320.5 200 L 328 200.5 L 317.5 213 L 311 212.5 L 320.5 200 Z " /><path fill="rgb(152,136,128)" stroke="rgb(152,136,128)" stroke-width="1" opacity="1" d="M 156.5 202 L 168 202.5 L 156.5 203 L 156.5 202 Z " /><path fill="rgb(152,136,128)" stroke="rgb(152,136,128)" stroke-width="1" opacity="1" d="M 344.5 202 L 356 202.5 L 344.5 203 L 344.5 202 Z " /><path fill="rgb(152,136,128)" stroke="rgb(152,136,128)" stroke-width="1" opacity="1" d="M 272.5 234 L 273.5 236 L 272.5 234 Z " /><path fill="rgb(152,136,128)" stroke="rgb(152,136,128)" stroke-width="1" opacity="1" d="M 276.5 238 L 277.5 240 L 276.5 238 Z " /><path fill="rgb(152,136,128)" stroke="rgb(152,136,128)" stroke-width="1" opacity="1" d="M 341.5 290 L 338.5 294 L 341.5 290 Z " /><path fill="rgb(131,110,93)" stroke="rgb(131,110,93)" stroke-width="1" opacity="1" d="M 182.5 189 L 185 189.5 L 182.5 190 L 182.5 189 Z " /><path fill="rgb(131,110,93)" stroke="rgb(131,110,93)" stroke-width="1" opacity="1" d="M 234.5 189 L 278 189.5 L 234.5 190 L 234.5 189 Z " /><path fill="rgb(131,110,93)" stroke="rgb(131,110,93)" stroke-width="1" opacity="1" d="M 241 194 L 270.5 194 L 271 195.5 L 269.5 195 L 242.5 195 L 241.5 196 L 241 194 Z " /><path fill="rgb(131,110,93)" stroke="rgb(131,110,93)" stroke-width="1" opacity="1" d="M 181.5 195 L 234.5 195 L 237 197.5 L 237 227.5 Q 235.6 233.6 230.5 236 L 227.5 237 L 188.5 237 L 181 231.5 L 179 227.5 L 179 197.5 L 181.5 195 Z M 209 200 L 200 212 L 200 213 Q 207 215 209 210 L 210 214 L 215 216 Q 221 216 223 212 Q 222 209 225 210 L 229 204 L 232 200 Q 224 198 223 202 Q 218 198 209 200 Z " /><path fill="rgb(131,110,93)" stroke="rgb(131,110,93)" stroke-width="1" opacity="1" d="M 277.5 195 L 330.5 195 L 333 197.5 L 333 227.5 Q 331.6 233.6 326.5 236 L 323.5 237 L 284.5 237 L 277 231.5 L 275 227.5 L 275 197.5 L 277.5 195 Z M 294 200 L 292 201 L 288 206 Q 287 212 290 214 L 295 216 Q 301 216 303 212 Q 302 209 305 210 L 309 204 L 312 200 Q 304 198 303 202 Q 300 199 294 200 Z M 321 200 L 311 213 L 318 213 L 328 201 L 321 200 Z " /><path fill="rgb(131,110,93)" stroke="rgb(131,110,93)" stroke-width="1" opacity="1" d="M 168.5 197 L 174 197.5 L 168.5 198 L 168.5 197 Z " /><path fill="rgb(131,110,93)" stroke="rgb(131,110,93)" stroke-width="1" opacity="1" d="M 338.5 197 L 344 197.5 L 338.5 198 L 338.5 197 Z " /><path fill="rgb(131,110,93)" stroke="rgb(131,110,93)" stroke-width="1" opacity="1" d="M 242.5 198 L 243 201.5 L 242 201.5 L 242.5 198 Z " /><path fill="rgb(131,110,93)" stroke="rgb(131,110,93)" stroke-width="1" opacity="1" d="M 269.5 199 L 270 201.5 L 269 201.5 L 269.5 199 Z " /><path fill="rgb(131,110,93)" stroke="rgb(131,110,93)" stroke-width="1" opacity="1" d="M 168.5 202 Q 173 201 174 203.5 L 173.5 226 L 173 203 L 168.5 203 L 168.5 202 Z " /><path fill="rgb(131,110,93)" stroke="rgb(131,110,93)" stroke-width="1" opacity="1" d="M 339.5 202 L 344 202.5 L 339 203 L 338.5 226 L 338 203.5 L 339.5 202 Z " /><path fill="rgb(131,110,93)" stroke="rgb(131,110,93)" stroke-width="1" opacity="1" d="M 269.5 209 L 270 225.5 L 269 225.5 L 269.5 209 Z " /><path fill="rgb(131,110,93)" stroke="rgb(131,110,93)" stroke-width="1" opacity="1" d="M 242.5 210 L 243 225.5 L 242 225.5 L 242.5 210 Z " /><path fill="rgb(131,110,93)" stroke="rgb(131,110,93)" stroke-width="1" opacity="1" d="M 177.5 235 L 180.5 239 L 177.5 235 Z " /><path fill="rgb(131,110,93)" stroke="rgb(131,110,93)" stroke-width="1" opacity="1" d="M 238.5 235 L 235.5 239 L 238.5 235 Z " /><path fill="rgb(131,110,93)" stroke="rgb(131,110,93)" stroke-width="1" opacity="1" d="M 274.5 236 L 275.5 238 L 274.5 236 Z " /><path fill="rgb(131,110,93)" stroke="rgb(131,110,93)" stroke-width="1" opacity="1" d="M 333.5 236 L 332.5 238 L 333.5 236 Z " /><path fill="rgb(131,110,93)" stroke="rgb(131,110,93)" stroke-width="1" opacity="1" d="M 190.5 242 L 226 242.5 L 190.5 243 L 190.5 242 Z " /><path fill="rgb(131,110,93)" stroke="rgb(131,110,93)" stroke-width="1" opacity="1" d="M 286.5 242 L 322 242.5 L 286.5 243 L 286.5 242 Z " /><path fill="rgb(131,110,93)" stroke="rgb(131,110,93)" stroke-width="1" opacity="1" d="M 171.5 291 L 183.5 304 L 171.5 291 Z " /><path fill="rgb(131,110,93)" stroke="rgb(131,110,93)" stroke-width="1" opacity="1" d="M 364.5 376 L 368 381.5 L 368 440 L 364 441 L 364.5 376 Z " /><path fill="rgb(211,159,143)" stroke="rgb(211,159,143)" stroke-width="1" opacity="1" d="M 216.5 92 L 224.5 92 L 240.5 96 L 256 106.5 L 256 136 L 290.5 136 L 295 139.5 L 296 144 L 256 144 L 256 160 L 290.5 160 L 295 163.5 L 296 168 L 256.5 168 L 256 168.5 L 256 189 L 231 189 L 228.5 185 L 226.5 184 L 189.5 184 L 185 187.5 Q 185.9 190.5 181.5 189 L 175 193.5 L 174 197 L 168.5 197 L 168 196.5 L 168 140.5 L 170 129.5 L 174 119.5 L 186.5 104 L 199.5 96 L 216.5 92 Z " /><path fill="rgb(211,159,143)" stroke="rgb(211,159,143)" stroke-width="1" opacity="1" d="M 242 195 L 255.5 195 L 256 198 L 257.5 198 L 257.5 199 Q 247.7 197.7 243.5 202 L 242 195 Z " /><path fill="rgb(211,159,143)" stroke="rgb(211,159,143)" stroke-width="1" opacity="1" d="M 168 203 L 173 203.5 L 173 227.5 Q 175.2 235.8 181.5 240 L 188.5 243 L 227.5 243 Q 235.8 240.8 240 234.5 L 243 227.5 L 243 209.5 L 245.5 207 L 256 204 L 256 209.5 L 240 264 L 263 264.5 L 255.5 272 L 219.5 272 L 210 279.5 Q 207.2 282.5 208 288 L 226.5 288 Q 237.3 296.4 256 296 L 256 311.5 Q 256 312.5 260.5 312 Q 270.8 313.8 276 320.5 Q 281.3 325.5 280 336 L 230.5 336 L 218.5 333 L 207.5 327 L 169 288.5 L 163 277.5 L 160 265.5 L 160 233.5 L 168 239.5 L 168 203 Z " /><path fill="rgb(211,159,143)" stroke="rgb(211,159,143)" stroke-width="1" opacity="1" d="M 337.5 294 L 328.5 304 L 337.5 294 Z " /><path fill="rgb(232,173,154)" stroke="rgb(232,173,154)" stroke-width="1" opacity="1" d="M 246.5 56 L 250 56.5 L 246.5 57 L 246.5 56 Z " /><path fill="rgb(232,173,154)" stroke="rgb(232,173,154)" stroke-width="1" opacity="1" d="M 225.5 92 L 228 92.5 L 225.5 93 L 225.5 92 Z " /><path fill="rgb(232,173,154)" stroke="rgb(232,173,154)" stroke-width="1" opacity="1" d="M 286.5 92 L 302.5 93 L 312.5 96 Q 324.3 101.2 332 110.5 L 340 123.5 L 344 138.5 L 344 197 L 338.5 197 L 338 195.5 L 334.5 191 L 326 187.5 Q 326.8 185.3 324.5 186 L 321.5 184 L 286.5 184 L 282 186 L 280.5 189 L 256 189 L 256 168 L 295.5 168 L 296 165.5 L 292.5 161 L 290.5 160 L 256 160 L 256 144 L 295.5 144 L 296 141.5 L 292.5 137 L 290.5 136 L 256 136 L 256 106.5 L 257.5 105 L 271.5 96 L 286.5 92 Z " /><path fill="rgb(232,173,154)" stroke="rgb(232,173,154)" stroke-width="1" opacity="1" d="M 194.5 98 L 193.5 100 L 194.5 98 Z " /><path fill="rgb(232,173,154)" stroke="rgb(232,173,154)" stroke-width="1" opacity="1" d="M 188.5 102 L 187.5 104 L 188.5 102 Z " /><path fill="rgb(232,173,154)" stroke="rgb(232,173,154)" stroke-width="1" opacity="1" d="M 251.5 102 L 253.5 105 L 251.5 102 Z " /><path fill="rgb(232,173,154)" stroke="rgb(232,173,154)" stroke-width="1" opacity="1" d="M 179.5 111 L 178.5 113 L 179.5 111 Z " /><path fill="rgb(232,173,154)" stroke="rgb(232,173,154)" stroke-width="1" opacity="1" d="M 256 195 L 269.5 195 L 270 196.5 L 268.5 202 L 262.5 199 L 256 198 L 256 195 Z " /><path fill="rgb(232,173,154)" stroke="rgb(232,173,154)" stroke-width="1" opacity="1" d="M 339 203 L 344 203.5 L 344 239.5 L 352 233.5 L 352 266.5 L 348 280.5 L 343 288.5 L 306.5 326 L 292.5 334 L 280 336 Q 281 323.3 273.5 318 Q 267.4 311.9 256 312 L 256 296 L 264.5 296 L 275.5 293 L 284.5 288 L 304 288 Q 303.8 278 296.5 274 L 292.5 272 L 256 271.5 L 262.5 264 L 240.5 264 L 240 262.5 L 256 209.5 L 256 204 Q 264.6 204.1 269 209.5 L 269 227.5 Q 271.1 235.8 277.5 240 L 284.5 243 L 323.5 243 Q 331.8 240.8 336 234.5 L 339 227.5 L 339 203 Z " /><path fill="rgb(232,173,154)" stroke="rgb(232,173,154)" stroke-width="1" opacity="1" d="M 227.5 335 L 230 335.5 L 227.5 336 L 227.5 335 Z " /><path fill="rgb(97,82,111)" stroke="rgb(97,82,111)" stroke-width="1" opacity="1" d="M 208 208 L 223.5 208 L 224 209.5 L 219.5 215 L 214.5 216 L 210 214 L 208 208 Z " /><path fill="rgb(97,82,111)" stroke="rgb(97,82,111)" stroke-width="1" opacity="1" d="M 288 208 L 303.5 208 L 304 209.5 L 299.5 215 L 294.5 216 L 290 214 L 288 208 Z " /><path fill="rgb(97,82,111)" stroke="rgb(97,82,111)" stroke-width="1" opacity="1" d="M 337.5 295 Q 374.4 307.6 397 334.5 Q 408.3 347.7 414 366.5 L 415 377.5 L 416 378.5 L 416 402.5 Q 412.7 415.2 403.5 422 Q 388.6 433.6 368.5 440 L 368 381.5 L 364.5 376 L 361 378.5 L 360 380.5 L 360 443 L 317.5 452 L 310.5 452 L 301.5 454 L 290.5 454 L 289.5 455 L 256 456 L 256 336.5 L 256.5 336 L 270.5 336 L 327.5 368 L 328 304.5 L 337.5 295 Z " /><path fill="rgb(97,82,111)" stroke="rgb(97,82,111)" stroke-width="1" opacity="1" d="M 148.5 376 L 152 380.5 L 152 442 L 148 440.5 L 148.5 376 Z " /><path fill="rgb(35,31,32)" stroke="rgb(35,31,32)" stroke-width="1" opacity="0.9921568627450981" d="M 236.5 32 L 275.5 32 L 276.5 33 L 285.5 33 L 311.5 38 Q 344.5 47 364 69.5 Q 381.5 89 388 119.5 L 390 137.5 L 391 138.5 L 391 149.5 L 392 150.5 L 392 183.5 L 382 200.5 L 377 219.5 Q 378.7 225.7 376 227.5 L 376 271.5 L 373 285 Q 398.3 298 416 319.5 Q 430.1 335.4 437 358.5 L 440 373.5 L 440 407.5 Q 434.7 429.7 418.5 441 Q 405.7 451.2 389.5 458 Q 370.6 466.1 348.5 471 L 321.5 476 L 306.5 477 L 305.5 478 L 295.5 478 L 294.5 479 L 280.5 479 L 279.5 480 L 232.5 480 L 231.5 479 L 206.5 478 L 205.5 477 L 197.5 477 L 196.5 476 L 178.5 474 L 151.5 468 L 135.5 463 L 106.5 450 Q 92.2 441.8 82 429.5 Q 74.8 420.7 72 407.5 L 72 373.5 L 78 349.5 L 86 333.5 Q 97.7 314.7 114.5 301 L 139 284.5 L 136 271.5 L 136 227.5 Q 133.2 225.7 135 219.5 L 130 200.5 L 120 183.5 L 120 149.5 L 121 148.5 L 121 138.5 L 122 137.5 L 124 119.5 L 132 94.5 Q 141.1 74.6 156.5 61 Q 169.9 48.9 188.5 42 L 208.5 36 L 213.5 36 L 226.5 33 L 235.5 33 L 236.5 32 Z M 236 56 L 235 57 L 220 58 L 198 64 Q 184 69 175 77 Q 161 87 154 104 L 147 126 L 146 137 L 145 138 L 145 148 L 144 149 L 144 178 Q 151 185 153 197 L 155 198 L 174 198 L 175 195 L 182 190 L 331 190 L 335 192 L 337 197 L 339 198 L 358 198 L 368 178 L 368 149 L 367 148 L 367 138 L 366 137 L 365 126 L 359 106 L 349 89 Q 334 68 306 61 L 277 56 L 236 56 Z M 183 194 L 178 199 L 178 227 L 181 233 L 190 238 L 227 238 L 233 235 L 238 227 L 238 199 L 232 194 L 183 194 Z M 241 194 L 242 203 L 254 199 Q 264 199 270 203 L 271 197 L 271 194 L 241 194 Z M 281 194 L 274 199 L 274 227 L 277 233 L 286 238 L 323 238 L 329 235 L 334 227 L 334 200 L 333 198 L 330 194 L 281 194 Z M 155 202 L 158 214 L 159 231 L 160 232 L 160 271 Q 163 286 174 295 Q 149 304 130 320 Q 103 339 96 377 L 96 404 L 101 415 Q 117 432 144 440 L 144 382 L 148 376 L 148 442 L 172 448 L 194 452 L 209 453 L 210 454 L 220 454 L 221 455 L 236 455 L 237 456 L 282 456 L 283 455 L 296 455 L 297 454 L 314 453 L 333 449 L 338 449 L 376 438 L 393 430 L 402 424 Q 412 418 416 406 L 416 375 L 413 362 Q 406 343 394 331 Q 372 307 338 295 Q 349 286 352 271 L 352 232 L 353 231 L 354 214 L 357 204 L 357 202 L 338 202 L 338 229 L 335 235 Q 331 240 325 242 L 284 242 L 278 239 Q 272 235 270 229 L 270 210 Q 267 205 262 204 Q 251 202 246 206 L 242 210 L 242 229 L 239 235 Q 235 240 229 242 L 188 242 L 182 239 Q 176 235 174 229 L 174 202 L 155 202 Z " /><path fill="rgb(35,31,32)" stroke="rgb(35,31,32)" stroke-width="1" opacity="0.9921568627450981" d="M 215.5 200 Q 221.1 200.5 223 204.5 L 224 208 L 208.5 208 L 208 206.5 L 212.5 201 L 215.5 200 Z " /><path fill="rgb(35,31,32)" stroke="rgb(35,31,32)" stroke-width="1" opacity="0.9921568627450981" d="M 294.5 200 Q 300.9 200.1 303 204.5 L 304 208 L 288.5 208 L 288 206.5 L 292.5 201 L 294.5 200 Z " /><path fill="rgb(35,31,32)" stroke="rgb(35,31,32)" stroke-width="1" opacity="0.9921568627450981" d="M 232.5 336 L 240 336.5 L 184.5 368 L 184 352 L 232.5 336 Z " /><path fill="rgb(71,59,82)" stroke="rgb(71,59,82)" stroke-width="1" opacity="1" d="M 164.5 87 L 163.5 89 L 164.5 87 Z " /><path fill="rgb(71,59,82)" stroke="rgb(71,59,82)" stroke-width="1" opacity="1" d="M 144.5 148 L 145 150.5 L 144 150.5 L 144.5 148 Z " /><path fill="rgb(71,59,82)" stroke="rgb(71,59,82)" stroke-width="1" opacity="1" d="M 182.5 194 L 232 194.5 L 182.5 195 L 182.5 194 Z " /><path fill="rgb(71,59,82)" stroke="rgb(71,59,82)" stroke-width="1" opacity="1" d="M 280.5 194 L 330 194.5 L 280.5 195 L 280.5 194 Z " /><path fill="rgb(71,59,82)" stroke="rgb(71,59,82)" stroke-width="1" opacity="1" d="M 178.5 198 L 179 226.5 L 178 226.5 L 178.5 198 Z " /><path fill="rgb(71,59,82)" stroke="rgb(71,59,82)" stroke-width="1" opacity="1" d="M 237.5 198 L 238 226.5 L 237 226.5 L 237.5 198 Z " /><path fill="rgb(71,59,82)" stroke="rgb(71,59,82)" stroke-width="1" opacity="1" d="M 274.5 198 L 275 226.5 L 274 226.5 L 274.5 198 Z " /><path fill="rgb(71,59,82)" stroke="rgb(71,59,82)" stroke-width="1" opacity="1" d="M 333.5 199 L 334 226.5 L 333 226.5 L 333.5 199 Z " /><path fill="rgb(71,59,82)" stroke="rgb(71,59,82)" stroke-width="1" opacity="1" d="M 211.5 201 L 209.5 204 L 211.5 201 Z " /><path fill="rgb(71,59,82)" stroke="rgb(71,59,82)" stroke-width="1" opacity="1" d="M 220.5 201 L 222.5 204 L 220.5 201 Z " /><path fill="rgb(71,59,82)" stroke="rgb(71,59,82)" stroke-width="1" opacity="1" d="M 291.5 201 L 289.5 204 L 291.5 201 Z " /><path fill="rgb(71,59,82)" stroke="rgb(71,59,82)" stroke-width="1" opacity="1" d="M 300.5 201 L 302.5 204 L 300.5 201 Z " /><path fill="rgb(71,59,82)" stroke="rgb(71,59,82)" stroke-width="1" opacity="1" d="M 181.5 232 L 183.5 235 L 181.5 232 Z " /><path fill="rgb(71,59,82)" stroke="rgb(71,59,82)" stroke-width="1" opacity="1" d="M 234.5 232 L 232.5 235 L 234.5 232 Z " /><path fill="rgb(71,59,82)" stroke="rgb(71,59,82)" stroke-width="1" opacity="1" d="M 277.5 232 L 279.5 235 L 277.5 232 Z " /><path fill="rgb(71,59,82)" stroke="rgb(71,59,82)" stroke-width="1" opacity="1" d="M 330.5 232 L 328.5 235 L 330.5 232 Z " /><path fill="rgb(71,59,82)" stroke="rgb(71,59,82)" stroke-width="1" opacity="1" d="M 189.5 237 L 227 237.5 L 189.5 238 L 189.5 237 Z " /><path fill="rgb(71,59,82)" stroke="rgb(71,59,82)" stroke-width="1" opacity="1" d="M 285.5 237 L 323 237.5 L 285.5 238 L 285.5 237 Z " /><path fill="rgb(71,59,82)" stroke="rgb(71,59,82)" stroke-width="1" opacity="1" d="M 168.5 288 L 169.5 290 L 168.5 288 Z " /><path fill="rgb(71,59,82)" stroke="rgb(71,59,82)" stroke-width="1" opacity="1" d="M 172.5 295 L 174.5 295 L 184 304.5 L 184.5 368 L 240.5 336 L 256 336 L 256 455.5 L 255.5 456 L 236.5 456 L 235.5 455 L 220.5 455 L 219.5 454 L 209.5 454 L 208.5 453 L 193.5 452 L 171.5 448 L 151 442.5 L 152 441.5 L 152 380.5 L 148.5 376 L 145 378.5 L 144 381.5 L 143.5 440 Q 117.2 432.3 101 414.5 L 96 403.5 L 96 376.5 Q 103.4 338.9 129.5 320 Q 148 304.5 172.5 295 Z " /><path fill="rgb(71,59,82)" stroke="rgb(71,59,82)" stroke-width="1" opacity="1" d="M 366.5 308 L 367.5 310 L 366.5 308 Z " /><path fill="rgb(71,59,82)" stroke="rgb(71,59,82)" stroke-width="1" opacity="1" d="M 372.5 312 L 373.5 314 L 372.5 312 Z " /><path fill="rgb(71,59,82)" stroke="rgb(71,59,82)" stroke-width="1" opacity="1" d="M 376.5 315 L 377.5 317 L 376.5 315 Z " /><path fill="rgb(71,59,82)" stroke="rgb(71,59,82)" stroke-width="1" opacity="1" d="M 380.5 318 L 382.5 321 L 380.5 318 Z " /><path fill="rgb(71,59,82)" stroke="rgb(71,59,82)" stroke-width="1" opacity="1" d="M 387.5 324 L 393.5 331 L 387.5 324 Z " /><path fill="rgb(71,59,82)" stroke="rgb(71,59,82)" stroke-width="1" opacity="1" d="M 397.5 335 L 398.5 337 L 397.5 335 Z " /><path fill="rgb(71,59,82)" stroke="rgb(71,59,82)" stroke-width="1" opacity="1" d="M 271.5 336 L 279.5 336 L 328 352 L 327.5 368 L 271.5 337 L 271.5 336 Z " /><path fill="rgb(71,59,82)" stroke="rgb(71,59,82)" stroke-width="1" opacity="1" d="M 400.5 339 L 401.5 341 L 400.5 339 Z " /><path fill="rgb(71,59,82)" stroke="rgb(71,59,82)" stroke-width="1" opacity="1" d="M 404.5 345 L 405.5 347 L 404.5 345 Z " /><path fill="rgb(71,59,82)" stroke="rgb(71,59,82)" stroke-width="1" opacity="1" d="M 414.5 368 L 415 370.5 L 414 370.5 L 414.5 368 Z " /><path fill="rgb(71,59,82)" stroke="rgb(71,59,82)" stroke-width="1" opacity="1" d="M 415.5 374 L 416 377.5 L 415 377.5 L 415.5 374 Z " /><path fill="rgb(71,59,82)" stroke="rgb(71,59,82)" stroke-width="1" opacity="1" d="M 363.5 376 L 364 440.5 L 365 441.5 L 360.5 443 L 360 380.5 L 363.5 376 Z " /><path fill="rgb(71,59,82)" stroke="rgb(71,59,82)" stroke-width="1" opacity="1" d="M 415.5 403 L 416 405.5 L 415 405.5 L 415.5 403 Z " /><path fill="rgb(71,59,82)" stroke="rgb(71,59,82)" stroke-width="1" opacity="1" d="M 411.5 413 L 410.5 415 L 411.5 413 Z " /><path fill="rgb(71,59,82)" stroke="rgb(71,59,82)" stroke-width="1" opacity="1" d="M 402.5 422 L 401.5 424 L 402.5 422 Z " /><path fill="rgb(71,59,82)" stroke="rgb(71,59,82)" stroke-width="1" opacity="1" d="M 393.5 428 L 392.5 430 L 393.5 428 Z " /><path fill="rgb(71,59,82)" stroke="rgb(71,59,82)" stroke-width="1" opacity="1" d="M 335.5 448 L 338 448.5 L 335.5 449 L 335.5 448 Z " /><path fill="rgb(71,59,82)" stroke="rgb(71,59,82)" stroke-width="1" opacity="1" d="M 324.5 450 L 327 450.5 L 324.5 451 L 324.5 450 Z " /><path fill="rgb(71,59,82)" stroke="rgb(71,59,82)" stroke-width="1" opacity="1" d="M 318.5 451 L 321 451.5 L 318.5 452 L 318.5 451 Z " /><path fill="rgb(71,59,82)" stroke="rgb(71,59,82)" stroke-width="1" opacity="1" d="M 310.5 452 L 314 452.5 L 310.5 453 L 310.5 452 Z " /><path fill="rgb(71,59,82)" stroke="rgb(71,59,82)" stroke-width="1" opacity="1" d="M 302.5 453 L 306 453.5 L 302.5 454 L 302.5 453 Z " /><path fill="rgb(71,59,82)" stroke="rgb(71,59,82)" stroke-width="1" opacity="1" d="M 290.5 454 L 296 454.5 L 290.5 455 L 290.5 454 Z " /><path fill="rgb(71,59,82)" stroke="rgb(71,59,82)" stroke-width="1" opacity="1" d="M 273.5 455 L 282 455.5 L 273.5 456 L 273.5 455 Z " /></svg>